<svg width="46" height="32" viewBox="0 0 46 32" fill="none" xmlns="http://www.w3.org/2000/svg">
<path d="M4.07983 23.9393H3.4209V20.802H4.11917L5.65341 22.8772V20.802H6.31234V23.9393H5.61407L4.07983 21.8691V23.9393Z" fill="white"/>
<path d="M9.34709 22.8772H7.55223C7.59648 23.2312 7.81777 23.4722 8.18658 23.4722C8.47179 23.4722 8.66357 23.3247 8.78158 23.1132L9.31267 23.2804C9.13072 23.6836 8.75208 23.9934 8.18658 23.9934C7.44896 23.9934 6.9228 23.482 6.9228 22.7346C6.9228 21.9871 7.45388 21.4855 8.15215 21.4855C8.82584 21.4855 9.34709 21.9674 9.34709 22.7051V22.8772ZM7.58665 22.4444H8.7029C8.62423 22.174 8.44228 21.9871 8.14724 21.9871C7.85219 21.9871 7.65549 22.1691 7.58665 22.4444Z" fill="white"/>
<path d="M9.53549 23.9393L10.4649 22.7346L9.54532 21.5347H10.2829L10.8337 22.2527L11.3844 21.5347H12.1319L11.2025 22.7346L12.127 23.9393H11.3894L10.8337 23.2116L10.2731 23.9393H9.53549Z" fill="white"/>
<path d="M13.5628 23.9885C13.0268 23.9885 12.7809 23.7033 12.7809 23.1722V22.0609H12.304V21.5347H12.7809V20.8709H13.3907V21.5347H14.1037V22.0609H13.3858V23.1673C13.3858 23.3935 13.5136 23.4673 13.7202 23.4673C13.8431 23.4673 14.0103 23.4328 14.1136 23.3984V23.9197C13.9562 23.9688 13.7398 23.9885 13.5628 23.9885Z" fill="white"/>
<path d="M14.514 23.5263C14.514 23.2804 14.7107 23.1132 14.9369 23.1132C15.1631 23.1132 15.35 23.2804 15.35 23.5263C15.35 23.7721 15.1631 23.9492 14.9369 23.9492C14.7058 23.9492 14.514 23.7771 14.514 23.5263Z" fill="white"/>
<path d="M16.5838 21.2544H15.9642V20.684H16.5838V21.2544ZM15.4429 24.9622V24.4114C15.7871 24.4114 15.974 24.2688 15.974 23.9344V21.5347H16.5838V23.9443C16.5838 24.6966 15.9789 24.972 15.4429 24.9622Z" fill="white"/>
<path d="M17.0825 23.2902L17.6185 23.0985C17.7217 23.3591 17.9627 23.482 18.2233 23.482C18.4397 23.482 18.656 23.3886 18.656 23.2361C18.656 23.0739 18.4102 23.0099 18.125 22.9411C17.7266 22.8427 17.2202 22.71 17.2202 22.1986C17.2202 21.6724 17.7365 21.4855 18.2479 21.4855C18.779 21.4855 19.197 21.6921 19.3445 22.2133L18.7937 22.3559C18.7101 22.1051 18.4938 21.9871 18.2282 21.9871C18.0905 21.9871 17.8545 22.051 17.8545 22.1986C17.8545 22.3117 18.0266 22.3854 18.3364 22.4641C18.7298 22.5674 19.3346 22.7149 19.3346 23.2312C19.3346 23.7328 18.7642 23.9885 18.2479 23.9885C17.7365 23.9885 17.2349 23.8115 17.0825 23.2902Z" fill="white"/>
<path d="M25.1454 23.9393H24.4864V20.8069H26.7534V21.3724H25.1454V22.0756H26.6304V22.6018H25.1454V23.9393Z" fill="white"/>
<path d="M29.5882 23.9098C29.4751 23.959 29.3521 23.9885 29.2194 23.9885C28.8309 23.9885 28.7374 23.7181 28.7374 23.3837C28.6391 23.782 28.3047 23.9934 27.8916 23.9934C27.4589 23.9934 27.0704 23.7574 27.0704 23.2902C27.0704 22.7051 27.6556 22.5723 28.1375 22.5034L28.7374 22.41C28.7374 22.1248 28.6047 22.0215 28.3293 22.0215C28.0687 22.0215 27.8277 22.1101 27.7933 22.3756L27.1885 22.3166C27.2032 21.7314 27.7392 21.4855 28.2703 21.4855C28.885 21.4855 29.362 21.6527 29.362 22.3264V23.3197C29.362 23.3984 29.3964 23.4525 29.4898 23.4525C29.5193 23.4525 29.5587 23.4476 29.5882 23.4328V23.9098ZM28.1277 22.9116C27.9359 22.9509 27.69 23.0149 27.7048 23.2165C27.7195 23.4132 27.9556 23.4918 28.1572 23.4574C28.4522 23.4328 28.7276 23.1771 28.7325 22.8624L28.7374 22.8034L28.1277 22.9116Z" fill="white"/>
<path d="M29.8691 23.2902L30.4051 23.0985C30.5083 23.3591 30.7493 23.482 31.0099 23.482C31.2263 23.482 31.4426 23.3886 31.4426 23.2361C31.4426 23.0739 31.1968 23.0099 30.9116 22.9411C30.5132 22.8427 30.0068 22.71 30.0068 22.1986C30.0068 21.6724 30.5231 21.4855 31.0345 21.4855C31.5656 21.4855 31.9836 21.6921 32.1311 22.2133L31.5803 22.3559C31.4967 22.1051 31.2804 21.9871 31.0148 21.9871C30.8771 21.9871 30.6411 22.051 30.6411 22.1986C30.6411 22.3117 30.8132 22.3854 31.123 22.4641C31.5164 22.5674 32.1212 22.7149 32.1212 23.2312C32.1212 23.7328 31.5508 23.9885 31.0345 23.9885C30.5231 23.9885 30.0215 23.8115 29.8691 23.2902Z" fill="white"/>
<path d="M33.716 23.9885C33.18 23.9885 32.9341 23.7033 32.9341 23.1722V22.0609H32.4571V21.5347H32.9341V20.8709H33.5438V21.5347H34.2569V22.0609H33.5389V23.1673C33.5389 23.3935 33.6668 23.4673 33.8733 23.4673C33.9962 23.4673 34.1634 23.4328 34.2667 23.3984V23.9197C34.1093 23.9688 33.893 23.9885 33.716 23.9885Z" fill="white"/>
<path d="M35.2043 23.9393H34.5208L35.6173 20.802H36.6107L37.7122 23.9393H37.0188L36.7484 23.1673H35.4797L35.2043 23.9393ZM35.6665 22.6018H36.5615L36.114 21.3233L35.6665 22.6018Z" fill="white"/>
<path d="M38.822 23.9393H38.163V20.802H39.5055C40.1497 20.802 40.7742 21.0676 40.7742 21.8642C40.7742 22.6854 40.2038 22.9952 39.5399 22.9952H38.822V23.9393ZM38.822 21.3675V22.4297H39.4858C39.8005 22.4297 40.1103 22.3166 40.1103 21.874C40.1103 21.4167 39.7759 21.3675 39.4858 21.3675H38.822Z" fill="white"/>
<path d="M42.0058 23.9393H41.3469V20.802H42.0058V23.9393Z" fill="white"/>
<path d="M21.5966 23.2124H20.8V22.6961H21.5966V21.9487H22.1178V22.6961H22.9145V23.2124H22.1178V23.955H21.5966V23.2124Z" fill="white"/>
<path d="M4.38079 29.69H3.88474V27.754H3.11476V27.3283H5.15818V27.754H4.38079V29.69ZM10.2148 29.69H8.49713V27.3283H10.2296V27.754H8.99318V28.2722H10.1556V28.6646H8.99318V29.2643H10.2148V29.69ZM13.7055 29.69V27.3283H14.3756L15.1307 29.1348L15.8933 27.3283H16.5485V29.69H16.0525V28.1316L15.4047 29.69H14.8531L14.2016 28.1316V29.69H13.7055ZM20.5596 29.69H20.0635V27.3283H21.0741C21.5591 27.3283 22.0292 27.5282 22.0292 28.1279C22.0292 28.7461 21.5998 28.9793 21.1 28.9793H20.5596V29.69ZM20.5596 27.754V28.5536H21.0593C21.2962 28.5536 21.5294 28.4684 21.5294 28.1353C21.5294 27.791 21.2777 27.754 21.0593 27.754H20.5596ZM27.1013 29.69H25.3984V27.3283H25.8945V29.2643H27.1013V29.69ZM30.7907 29.69H30.2762L31.1017 27.3283H31.8495L32.6787 29.69H32.1567L31.9531 29.1089H30.998L30.7907 29.69ZM31.1387 28.6831H31.8124L31.4756 27.7207L31.1387 28.6831ZM36.7916 29.69H36.2955V27.754H35.5255V27.3283H37.569V27.754H36.7916V29.69ZM42.6256 29.69H40.9079V27.3283H42.6404V27.754H41.404V28.2722H42.5663V28.6646H41.404V29.2643H42.6256V29.69Z" fill="white"/>
<path d="M30.778 3.49789L34.7179 7.43782C35.8864 8.60634 35.8864 10.5069 34.7179 11.6754L30.778 15.6154C29.6095 16.7839 27.7089 16.7839 26.5404 15.6154L23.5819 12.6569L23.5602 12.6352C23.3266 12.4016 23.147 12.222 22.9963 12.1004C22.8414 11.9755 22.7064 11.9028 22.5636 11.9028C22.4209 11.9028 22.2858 11.9755 22.131 12.1004C21.9803 12.222 21.8007 12.4016 21.567 12.6352L21.5454 12.6569L18.5869 15.6154C17.4184 16.7839 15.5178 16.7839 14.3493 15.6154L10.4094 11.6754C9.24085 10.5069 9.24085 8.60634 10.4094 7.43782L14.3493 3.49789C15.5178 2.32937 17.4184 2.32937 18.5869 3.49789L21.5454 6.45638L21.567 6.47802C21.8007 6.71168 21.9803 6.89128 22.131 7.01281C22.2858 7.13772 22.4209 7.21041 22.5636 7.21041C22.7064 7.21041 22.8414 7.13772 22.9963 7.01281C23.147 6.89128 23.3266 6.71168 23.5602 6.47802L23.5819 6.45638L26.5404 3.49789C27.7089 2.32937 29.6095 2.32937 30.778 3.49789Z" fill="url(#paint0_linear_1430_21)" stroke="url(#paint1_linear_1430_21)" stroke-width="0.122605"/>
<path d="M18.4604 13.2301C18.4516 13.2301 18.4429 13.2388 18.4342 13.2432C18.4385 13.2388 18.4342 13.2345 18.4342 13.2301C18.4254 13.2257 18.0629 12.7234 17.6305 12.1206L16.8398 11.0199L15.8527 9.51294C15.3111 8.68302 14.8655 8.00599 14.8611 8.00599C14.8611 8.00599 14.8437 8.66992 14.8306 9.478C14.8087 10.8976 14.8044 10.9544 14.7869 10.985C14.7607 11.033 14.7388 11.0505 14.6995 11.0723C14.669 11.0854 14.6384 11.0898 14.4899 11.0898H14.3195L14.2758 11.0592C14.2453 11.0417 14.2234 11.0155 14.2103 10.985L14.1885 10.9413L14.2496 6.99698L14.2802 6.95767C14.2977 6.93583 14.3283 6.90962 14.3545 6.90088C14.3938 6.88341 14.4112 6.87904 14.5816 6.88341C14.7825 6.88341 14.8175 6.89652 14.8655 6.9533C14.8786 6.97077 15.4159 7.80069 16.0536 8.80096C16.6913 9.80123 17.5649 11.1684 17.993 11.8367L18.7705 13.051C18.7705 13.051 18.7661 13.051 18.7618 13.0554C18.7618 13.0554 18.7399 13.0641 18.7268 13.0772C18.7093 13.086 18.7006 13.0947 18.6962 13.0991C18.6962 13.0991 18.6875 13.1034 18.6831 13.1078C18.6831 13.1078 18.6744 13.1078 18.6569 13.1209C18.6569 13.1209 18.6526 13.1253 18.6482 13.1296C18.6438 13.1296 18.6395 13.134 18.6307 13.1384C18.6307 13.134 18.622 13.1384 18.6045 13.1515C18.6045 13.1515 18.6001 13.1558 18.5958 13.1558C18.5914 13.1558 18.587 13.1602 18.5783 13.1646C18.5783 13.1646 18.5696 13.1646 18.5521 13.1777C18.5521 13.1777 18.5521 13.1777 18.5477 13.1777C18.5346 13.1864 18.5215 13.1908 18.5084 13.1995C18.5084 13.1995 18.5041 13.1995 18.4822 13.2083H18.4778C18.4604 13.2214 18.4516 13.2257 18.4516 13.2301H18.4604Z" fill="white"/>
<path d="M17.875 6.81353C17.923 6.83974 17.958 6.88342 17.9711 6.93146C17.9798 6.95767 17.9711 7.50367 17.9536 8.73544L17.923 10.5045L17.6173 10.0196L17.3115 9.53479L17.329 8.2506C17.3421 7.42068 17.3508 6.9533 17.3596 6.93146C17.377 6.87468 17.412 6.83537 17.46 6.80916C17.4993 6.78732 17.5168 6.78732 17.6697 6.79169C17.8138 6.79169 17.8401 6.79606 17.875 6.81353Z" fill="white"/>
<path d="M28.7167 5.69095L26.2051 10.2293H28.4677L28.2144 13.2563L30.7259 8.71797H28.4633L28.7167 5.69095Z" fill="white"/>
<defs>
<linearGradient id="paint0_linear_1430_21" x1="34.649" y1="5.45238" x2="9.84515" y2="10.3513" gradientUnits="userSpaceOnUse">
<stop stop-color="#3BD07F"/>
<stop offset="0.506689" stop-color="#8BDEEC"/>
<stop offset="1" stop-color="#3F8FFF"/>
</linearGradient>
<linearGradient id="paint1_linear_1430_21" x1="33.5338" y1="5.29125" x2="13.3194" y2="7.98613" gradientUnits="userSpaceOnUse">
<stop stop-color="#4BB973"/>
<stop offset="0.485" stop-color="#68D8BC"/>
<stop offset="1" stop-color="#3F8FFF"/>
</linearGradient>
</defs>
</svg>
